# xmcd
#
# Track frame offsets:
#	150
#	15683
#	31576
#	43432
#	61493
#	77238
#	91886
#	107122
#	122958
#	136551
#	150521
#	163902
#	180364
#	196656
#	211510
#	226191
#
# Disc length: 3211
#
# Revision: 1
# Processed by: cddbd v1.5.2PL0 Copyright (c) Steve Scherf et al.
# Submitted via: kJams 2 2.1b14.4
#
DISCID=c10c8910
DTITLE=Various Artist - SYB1147 – Party Tyme Karaoke Country Hits 24
DYEAR=2019
DGENRE=Country
TTITLE0=Blake Sheldon - God's Country
TTITLE1=Blanco Brown - The Git Up
TTITLE2=Lil Nas X ft. Billy Ray Cyrus - Old Town Road
TTITLE3=Morgan Wallen - Whiskey Glasses
TTITLE4=Carrie Underwood - Southbound
TTITLE5=Lee Bryce - Rumor
TTITLE6=Kane Brown - Good as You
TTITLE7=Runaway Jane - Buy My Own Drinks
TTITLE8=Thomas Rhett - Look What God Gave Her
TTITLE9=Chase Rice - Eyes on You
TTITLE10=Dan and Shay - All to Myself
TTITLE11=Luke Bryan - Knockin' Boots
TTITLE12=Miranda Lambert - It All Comeas Out in the Wash
TTITLE13=Jason Aldean - Girl Like You
TTITLE14=Eric Church - Some of It
TTITLE15=Carly Pearce - Closer to You
EXTD=
EXTT0=SYB1147
EXTT1=SYB1147
EXTT2=SYB1147
EXTT3=SYB1147
EXTT4=SYB1147
EXTT5=SYB1147
EXTT6=SYB1147
EXTT7=SYB1147
EXTT8=SYB1147
EXTT9=SYB1147
EXTT10=SYB1147
EXTT11=SYB1147
EXTT12=SYB1147
EXTT13=SYB1147
EXTT14=SYB1147
EXTT15=SYB1147
PLAYORDER=
